<svg xmlns="http://www.w3.org/2000/svg" width="203.552" height="32.001" viewBox="0 0 203.552 32.001"><g transform="translate(-32 -24)"><path d="M9.248-6.848c4.768,0,7.36-2.56,7.36-6.688,0-4.032-2.528-6.624-7.36-6.624H1.76V0H6.144V-6.848Zm-.032-9.664A2.862,2.862,0,0,1,12.192-13.5a3.012,3.012,0,0,1-2.976,3.168H6.144v-6.176ZM34.368-7.424c0-4.96-2.976-7.872-7.488-7.872s-7.488,2.912-7.488,7.872c0,4.672,2.624,7.9,7.52,7.9C31.776.48,34.368-2.752,34.368-7.424Zm-4.256,0c0,2.688-.992,4.544-3.232,4.544s-3.232-1.856-3.232-4.544.992-4.448,3.232-4.448S30.112-10.112,30.112-7.424ZM52.1-1.088,50.656-4.1h-.512a6.412,6.412,0,0,1-3.3.96A1.546,1.546,0,0,1,45.184-4.8V-22.784H37.12v3.456h3.936V-5.056c0,3.808,2.016,5.6,5.376,5.6A10.949,10.949,0,0,0,52.1-1.088ZM67.072.032h2.24v-8.16c0-4.32-1.664-7.168-6.912-7.168a15.289,15.289,0,0,0-5.568,1.056v3.168h.576a11.421,11.421,0,0,1,4.32-.96c2.592,0,3.552,1.28,3.552,2.784V-8.8H62.24c-3.808,0-6.848,1.344-6.848,4.7,0,2.72,2.016,4.576,5.632,4.576a8.319,8.319,0,0,0,5.312-1.952ZM61.728-2.752c-1.5,0-2.432-.64-2.432-1.76,0-1.152.992-1.728,2.688-1.728h3.3v2.272A6.961,6.961,0,0,1,61.728-2.752ZM88.16-14.72A10.9,10.9,0,0,0,84.8-15.3a7.478,7.478,0,0,0-5.7,2.816l-.864-2.24H73.152v3.456h3.3V0h4.16V-9.408a5.547,5.547,0,0,1,4.064-1.92,10.485,10.485,0,0,1,2.912.544h.576Zm17.888,7.3c0-4.96-2.976-7.872-7.488-7.872s-7.488,2.912-7.488,7.872c0,4.672,2.624,7.9,7.52,7.9C103.456.48,106.048-2.752,106.048-7.424Zm-4.256,0c0,2.688-.992,4.544-3.232,4.544s-3.232-1.856-3.232-4.544.992-4.448,3.232-4.448S101.792-10.112,101.792-7.424ZM112.8-20.1a2.5,2.5,0,0,0,2.688,2.56,2.471,2.471,0,0,0,2.688-2.56,2.5,2.5,0,0,0-2.688-2.528A2.48,2.48,0,0,0,112.8-20.1ZM123.968-1.088,122.5-4.1h-.48a5.017,5.017,0,0,1-2.72.96,1.558,1.558,0,0,1-1.728-1.7V-14.72h-8.352v3.456h4.224v6.208c0,3.712,2.016,5.6,5.344,5.6A9.074,9.074,0,0,0,123.968-1.088Zm13.184-21.7v8.448a5.423,5.423,0,0,0-3.264-.96c-3.968,0-6.976,2.944-6.976,7.968,0,4.832,2.816,7.808,6.88,7.808a6.455,6.455,0,0,0,4.544-1.952l.736,1.5h2.24V-22.784Zm-2.752,11.2a4.778,4.778,0,0,1,2.752.96v6.176A4.314,4.314,0,0,1,134.4-3.232c-1.888,0-3.232-1.312-3.232-4.192C131.168-10.24,132.48-11.584,134.4-11.584Z" transform="translate(94.24 50.784)"/><g transform="translate(-64 4)"><path d="M-332-319h-48v-32h48v32Zm-44-28h0v20h40v-20h-40Z" transform="translate(476 371)"/><rect width="40" height="20" transform="translate(100 24)" opacity="0.8"/><path d="M-376-347h48v2l-48,24Z" transform="translate(472 367)" fill="#fff" opacity="0.2"/></g></g></svg>